<svg xmlns="http://www.w3.org/2000/svg" width="640" height="582" viewBox="0 0 640 582" role="img" aria-label="Agent-benchmark papers per capability theme"><text x="10" y="20" font-size="14" font-weight="bold" fill="#15242a">Agent-benchmark papers per capability theme</text><text x="10" y="145" font-size="12" fill="#15242a">planning</text><rect x="130" y="134" width="450" height="16" fill="#2f6f8f"><title>planning: 431</title></rect><text x="586" y="146" font-size="12" fill="#15242a">431</text><text x="10" y="171" font-size="12" fill="#15242a">tool-use</text><rect x="130" y="160" width="424" height="16" fill="#2f6f8f"><title>tool-use: 407</title></rect><text x="560" y="172" font-size="12" fill="#15242a">407</text><text x="10" y="197" font-size="12" fill="#15242a">safety</text><rect x="130" y="186" width="311" height="16" fill="#2f6f8f"><title>safety: 298</title></rect><text x="447" y="198" font-size="12" fill="#15242a">298</text><text x="10" y="223" font-size="12" fill="#15242a">coding</text><rect x="130" y="212" width="187" height="16" fill="#2f6f8f"><title>coding: 180</title></rect><text x="323" y="224" font-size="12" fill="#15242a">180</text><text x="10" y="249" font-size="12" fill="#15242a">multimodal</text><rect x="130" y="238" width="172" height="16" fill="#2f6f8f"><title>multimodal: 165</title></rect><text x="308" y="250" font-size="12" fill="#15242a">165</text><text x="10" y="275" font-size="12" fill="#15242a">memory</text><rect x="130" y="264" width="157" height="16" fill="#2f6f8f"><title>memory: 151</title></rect><text x="293" y="276" font-size="12" fill="#15242a">151</text><text x="10" y="301" font-size="12" fill="#15242a">multi-agent</text><rect x="130" y="290" width="132" height="16" fill="#2f6f8f"><title>multi-agent: 127</title></rect><text x="268" y="302" font-size="12" fill="#15242a">127</text><text x="10" y="327" font-size="12" fill="#15242a">science</text><rect x="130" y="316" width="98" height="16" fill="#2f6f8f"><title>science: 94</title></rect><text x="234" y="328" font-size="12" fill="#15242a">94</text><text x="10" y="353" font-size="12" fill="#15242a">gui</text><rect x="130" y="342" width="76" height="16" fill="#2f6f8f"><title>gui: 73</title></rect><text x="212" y="354" font-size="12" fill="#15242a">73</text><text x="10" y="379" font-size="12" fill="#15242a">research</text><rect x="130" y="368" width="64" height="16" fill="#2f6f8f"><title>research: 62</title></rect><text x="200" y="380" font-size="12" fill="#15242a">62</text><text x="10" y="405" font-size="12" fill="#15242a">web</text><rect x="130" y="394" width="50" height="16" fill="#2f6f8f"><title>web: 48</title></rect><text x="186" y="406" font-size="12" fill="#15242a">48</text><text x="10" y="431" font-size="12" fill="#15242a">conversation</text><rect x="130" y="420" width="45" height="16" fill="#2f6f8f"><title>conversation: 44</title></rect><text x="181" y="432" font-size="12" fill="#15242a">44</text><text x="10" y="457" font-size="12" fill="#15242a">computer-use</text><rect x="130" y="446" width="42" height="16" fill="#2f6f8f"><title>computer-use: 41</title></rect><text x="178" y="458" font-size="12" fill="#15242a">41</text><text x="10" y="483" font-size="12" fill="#15242a">embodied</text><rect x="130" y="472" width="39" height="16" fill="#2f6f8f"><title>embodied: 38</title></rect><text x="175" y="484" font-size="12" fill="#15242a">38</text><text x="10" y="509" font-size="12" fill="#15242a">workplace</text><rect x="130" y="498" width="20" height="16" fill="#2f6f8f"><title>workplace: 20</title></rect><text x="156" y="510" font-size="12" fill="#15242a">20</text><text x="10" y="535" font-size="12" fill="#15242a">mobile</text><rect x="130" y="524" width="14" height="16" fill="#2f6f8f"><title>mobile: 14</title></rect><text x="150" y="536" font-size="12" fill="#15242a">14</text><text x="10" y="561" font-size="12" fill="#15242a">rsi</text><rect x="130" y="550" width="3" height="16" fill="#2f6f8f"><title>rsi: 3</title></rect><text x="139" y="562" font-size="12" fill="#15242a">3</text></svg>